# xmcd
#
# Track frame offsets: 
#        150
#        17740
#        37137
#        51637
#        77400
#        99117
#        118902
#        133440
#        154192
#        173607
#
# Disc length: 2542 seconds
#
# Revision: 0
# Processed by: cddbd v1.5.2PL0 Copyright (c) Steve Scherf et al.
# Submitted via: ExactAudioCopy v1.0b3
#
DISCID=8309ec0a
DTITLE=Y Lan, VA - Hoa Xuan
DYEAR=1994
DGENRE=
TTITLE0=Y Lan - Gai Xuan
TTITLE1=Vu Khanh - Don vang chieu Xuan
TTITLE2=Vinh Trinh - Khuc hat thanh Xuan
TTITLE3=Anh Dung - Don Xuan
TTITLE4=Y Lan - Hoa Xuan
TTITLE5=Vu Khanh - Xuan nay con khong ve
TTITLE6=Y Lan - Xuan thi
TTITLE7=Anh Dung - Xuan da ve
TTITLE8=Y Lan - Mong chieu Xuan
TTITLE9=Vinh Trinh - Xuan hop mat
EXTD=
EXTT0=
EXTT1=
EXTT2=
EXTT3=
EXTT4=
EXTT5=
EXTT6=
EXTT7=
EXTT8=
EXTT9=
PLAYORDER=
